<?xml version="1.0" encoding="UTF-8" standalone="no"?>
<!DOCTYPE svg PUBLIC "-//W3C//DTD SVG 1.1//EN"
 "http://www.w3.org/Graphics/SVG/1.1/DTD/svg11.dtd">
<!-- Generated by graphviz version 2.40.1 (20161225.0304)
 -->
<!-- Title: dependencies Pages: 1 -->
<svg width="707pt" height="284pt"
 viewBox="0.00 0.00 707.00 284.00" xmlns="http://www.w3.org/2000/svg" xmlns:xlink="http://www.w3.org/1999/xlink">
<g id="graph0" class="graph" transform="scale(1 1) rotate(0) translate(4 280)">
<title>dependencies</title>
<polygon fill="#ffffff" stroke="transparent" points="-4,4 -4,-280 703,-280 703,4 -4,4"/>
<text text-anchor="start" x="328.5091" y="-42.4" font-family="sans-serif" font-weight="bold" font-size="14.00" fill="#000000">Legend</text>
<polygon fill="#ffffb3" stroke="transparent" points="115.5,-10 115.5,-30 135.5,-30 135.5,-10 115.5,-10"/>
<text text-anchor="start" x="139.129" y="-15.4" font-family="sans-serif" font-size="14.00" fill="#000000"> &#160;Declarations</text>
<polygon fill="#8dd3c7" stroke="transparent" points="228.5,-10 228.5,-30 248.5,-30 248.5,-10 228.5,-10"/>
<text text-anchor="start" x="252.2251" y="-15.4" font-family="sans-serif" font-size="14.00" fill="#000000"> &#160;Module</text>
<polygon fill="#80b1d3" stroke="transparent" points="314.5,-10 314.5,-30 334.5,-30 334.5,-10 314.5,-10"/>
<text text-anchor="start" x="338.2812" y="-15.4" font-family="sans-serif" font-size="14.00" fill="#000000"> &#160;Bootstrap</text>
<polygon fill="#fdb462" stroke="transparent" points="411.5,-10 411.5,-30 431.5,-30 431.5,-10 411.5,-10"/>
<text text-anchor="start" x="435.1732" y="-15.4" font-family="sans-serif" font-size="14.00" fill="#000000"> &#160;Providers</text>
<polygon fill="#fb8072" stroke="transparent" points="507.5,-10 507.5,-30 527.5,-30 527.5,-10 507.5,-10"/>
<text text-anchor="start" x="531.2258" y="-15.4" font-family="sans-serif" font-size="14.00" fill="#000000"> &#160;Exports</text>
<g id="clust1" class="cluster">
<title>cluster_SharedModule</title>
<polygon fill="none" stroke="#000000" stroke-dasharray="1,5" points="8,-70 8,-268 691,-268 691,-70 8,-70"/>
</g>
<g id="clust2" class="cluster">
<title>cluster_SharedModule_declarations</title>
<polygon fill="none" stroke="#000000" points="24,-78 24,-130 677,-130 677,-78 24,-78"/>
</g>
<g id="clust8" class="cluster">
<title>cluster_SharedModule_exports</title>
<polygon fill="none" stroke="#000000" points="16,-208 16,-260 683,-260 683,-208 16,-208"/>
</g>
<!-- CityCardComponent -->
<g id="node1" class="node">
<title>CityCardComponent</title>
<polygon fill="#ffffb3" stroke="#000000" points="669.1624,-122 536.8376,-122 536.8376,-86 669.1624,-86 669.1624,-122"/>
<text text-anchor="middle" x="603" y="-99.8" font-family="Times,serif" font-size="14.00" fill="#000000">CityCardComponent</text>
</g>
<!-- SharedModule -->
<g id="node5" class="node">
<title>SharedModule</title>
<polygon fill="#8dd3c7" stroke="#000000" points="301.4231,-187 298.4231,-191 277.4231,-191 274.4231,-187 202.5769,-187 202.5769,-151 301.4231,-151 301.4231,-187"/>
<text text-anchor="middle" x="252" y="-164.8" font-family="Times,serif" font-size="14.00" fill="#000000">SharedModule</text>
</g>
<!-- CityCardComponent&#45;&gt;SharedModule -->
<g id="edge1" class="edge">
<title>CityCardComponent&#45;&gt;SharedModule</title>
<path fill="none" stroke="#000000" d="M625.8603,-122.2667C625.8603,-140.5552 625.8603,-166 625.8603,-166 625.8603,-166 311.2602,-166 311.2602,-166"/>
<polygon fill="#000000" stroke="#000000" points="311.2602,-162.5001 301.2602,-166 311.2601,-169.5001 311.2602,-162.5001"/>
</g>
<!-- CityDropDownComponent -->
<g id="node2" class="node">
<title>CityDropDownComponent</title>
<polygon fill="#ffffb3" stroke="#000000" points="518.4312,-122 349.5688,-122 349.5688,-86 518.4312,-86 518.4312,-122"/>
<text text-anchor="middle" x="434" y="-99.8" font-family="Times,serif" font-size="14.00" fill="#000000">CityDropDownComponent</text>
</g>
<!-- CityDropDownComponent&#45;&gt;SharedModule -->
<g id="edge2" class="edge">
<title>CityDropDownComponent&#45;&gt;SharedModule</title>
<path fill="none" stroke="#000000" d="M462.0718,-122.0091C462.0718,-138.0494 462.0718,-159 462.0718,-159 462.0718,-159 311.2525,-159 311.2525,-159"/>
<polygon fill="#000000" stroke="#000000" points="311.2525,-155.5001 301.2525,-159 311.2525,-162.5001 311.2525,-155.5001"/>
</g>
<!-- DynamicContentDirective -->
<g id="node3" class="node">
<title>DynamicContentDirective</title>
<polygon fill="#ffffb3" stroke="#000000" points="331.7324,-122 168.2676,-122 168.2676,-86 331.7324,-86 331.7324,-122"/>
<text text-anchor="middle" x="250" y="-99.8" font-family="Times,serif" font-size="14.00" fill="#000000">DynamicContentDirective</text>
</g>
<!-- DynamicContentDirective&#45;&gt;SharedModule -->
<g id="edge3" class="edge">
<title>DynamicContentDirective&#45;&gt;SharedModule</title>
<path fill="none" stroke="#000000" d="M252,-122.1061C252,-122.1061 252,-140.991 252,-140.991"/>
<polygon fill="#000000" stroke="#000000" points="248.5001,-140.9909 252,-150.991 255.5001,-140.991 248.5001,-140.9909"/>
</g>
<!-- ModalComponent -->
<g id="node4" class="node">
<title>ModalComponent</title>
<polygon fill="#ffffb3" stroke="#000000" points="149.8823,-122 32.1177,-122 32.1177,-86 149.8823,-86 149.8823,-122"/>
<text text-anchor="middle" x="91" y="-99.8" font-family="Times,serif" font-size="14.00" fill="#000000">ModalComponent</text>
</g>
<!-- ModalComponent&#45;&gt;SharedModule -->
<g id="edge4" class="edge">
<title>ModalComponent&#45;&gt;SharedModule</title>
<path fill="none" stroke="#000000" d="M107.8137,-122.0225C107.8137,-139.3734 107.8137,-163 107.8137,-163 107.8137,-163 192.7825,-163 192.7825,-163"/>
<polygon fill="#000000" stroke="#000000" points="192.7826,-166.5001 202.7825,-163 192.7825,-159.5001 192.7826,-166.5001"/>
</g>
<!-- CityCardComponent  -->
<g id="node6" class="node">
<title>CityCardComponent </title>
<polygon fill="#fb8072" stroke="#000000" points="675.1621,-252 538.8379,-252 538.8379,-216 675.1621,-216 675.1621,-252"/>
<text text-anchor="middle" x="607" y="-229.8" font-family="Times,serif" font-size="14.00" fill="#000000">CityCardComponent </text>
</g>
<!-- SharedModule&#45;&gt;CityCardComponent  -->
<g id="edge5" class="edge">
<title>SharedModule&#45;&gt;CityCardComponent </title>
<path fill="none" stroke="#000000" stroke-dasharray="5,2" d="M301.4627,-173C393.6303,-173 582.3897,-173 582.3897,-173 582.3897,-173 582.3897,-205.698 582.3897,-205.698"/>
<polygon fill="#000000" stroke="#000000" points="578.8898,-205.698 582.3897,-215.698 585.8898,-205.698 578.8898,-205.698"/>
</g>
<!-- CityDropDownComponent  -->
<g id="node7" class="node">
<title>CityDropDownComponent </title>
<polygon fill="#fb8072" stroke="#000000" points="520.9306,-252 349.0694,-252 349.0694,-216 520.9306,-216 520.9306,-252"/>
<text text-anchor="middle" x="435" y="-229.8" font-family="Times,serif" font-size="14.00" fill="#000000">CityDropDownComponent </text>
</g>
<!-- SharedModule&#45;&gt;CityDropDownComponent  -->
<g id="edge6" class="edge">
<title>SharedModule&#45;&gt;CityDropDownComponent </title>
<path fill="none" stroke="#000000" stroke-dasharray="5,2" d="M301.5512,-180C346.5493,-180 405.9282,-180 405.9282,-180 405.9282,-180 405.9282,-205.7181 405.9282,-205.7181"/>
<polygon fill="#000000" stroke="#000000" points="402.4283,-205.718 405.9282,-215.7181 409.4283,-205.7181 402.4283,-205.718"/>
</g>
<!-- DynamicContentDirective  -->
<g id="node8" class="node">
<title>DynamicContentDirective </title>
<polygon fill="#fb8072" stroke="#000000" points="330.7324,-252 163.2676,-252 163.2676,-216 330.7324,-216 330.7324,-252"/>
<text text-anchor="middle" x="247" y="-229.8" font-family="Times,serif" font-size="14.00" fill="#000000">DynamicContentDirective </text>
</g>
<!-- SharedModule&#45;&gt;DynamicContentDirective  -->
<g id="edge7" class="edge">
<title>SharedModule&#45;&gt;DynamicContentDirective </title>
<path fill="none" stroke="#000000" stroke-dasharray="5,2" d="M252,-187.1061C252,-187.1061 252,-205.991 252,-205.991"/>
<polygon fill="#000000" stroke="#000000" points="248.5001,-205.9909 252,-215.991 255.5001,-205.991 248.5001,-205.9909"/>
</g>
<!-- ModalComponent  -->
<g id="node9" class="node">
<title>ModalComponent </title>
<polygon fill="#fb8072" stroke="#000000" points="145.8828,-252 24.1172,-252 24.1172,-216 145.8828,-216 145.8828,-252"/>
<text text-anchor="middle" x="85" y="-229.8" font-family="Times,serif" font-size="14.00" fill="#000000">ModalComponent </text>
</g>
<!-- SharedModule&#45;&gt;ModalComponent  -->
<g id="edge8" class="edge">
<title>SharedModule&#45;&gt;ModalComponent </title>
<path fill="none" stroke="#000000" stroke-dasharray="5,2" d="M202.7309,-175C148.812,-175 69.9363,-175 69.9363,-175 69.9363,-175 69.9363,-205.9775 69.9363,-205.9775"/>
<polygon fill="#000000" stroke="#000000" points="66.4364,-205.9774 69.9363,-215.9775 73.4364,-205.9775 66.4364,-205.9774"/>
</g>
</g>
</svg>
