<?xml version="1.0" encoding="UTF-8" standalone="no"?>
<!DOCTYPE svg PUBLIC "-//W3C//DTD SVG 1.1//EN"
 "http://www.w3.org/Graphics/SVG/1.1/DTD/svg11.dtd">
<!-- Generated by graphviz version 2.40.1 (20161225.0304)
 -->
<!-- Title: dependencies Pages: 1 -->
<svg width="1112pt" height="284pt"
 viewBox="0.00 0.00 1112.00 284.00" xmlns="http://www.w3.org/2000/svg" xmlns:xlink="http://www.w3.org/1999/xlink">
<g id="graph0" class="graph" transform="scale(1 1) rotate(0) translate(4 280)">
<title>dependencies</title>
<polygon fill="#ffffff" stroke="transparent" points="-4,4 -4,-280 1108,-280 1108,4 -4,4"/>
<text text-anchor="start" x="531.0091" y="-42.4" font-family="sans-serif" font-weight="bold" font-size="14.00" fill="#000000">Legend</text>
<polygon fill="#ffffb3" stroke="transparent" points="318,-10 318,-30 338,-30 338,-10 318,-10"/>
<text text-anchor="start" x="341.629" y="-15.4" font-family="sans-serif" font-size="14.00" fill="#000000"> &#160;Declarations</text>
<polygon fill="#8dd3c7" stroke="transparent" points="431,-10 431,-30 451,-30 451,-10 431,-10"/>
<text text-anchor="start" x="454.7251" y="-15.4" font-family="sans-serif" font-size="14.00" fill="#000000"> &#160;Module</text>
<polygon fill="#80b1d3" stroke="transparent" points="517,-10 517,-30 537,-30 537,-10 517,-10"/>
<text text-anchor="start" x="540.7812" y="-15.4" font-family="sans-serif" font-size="14.00" fill="#000000"> &#160;Bootstrap</text>
<polygon fill="#fdb462" stroke="transparent" points="614,-10 614,-30 634,-30 634,-10 614,-10"/>
<text text-anchor="start" x="637.6732" y="-15.4" font-family="sans-serif" font-size="14.00" fill="#000000"> &#160;Providers</text>
<polygon fill="#fb8072" stroke="transparent" points="710,-10 710,-30 730,-30 730,-10 710,-10"/>
<text text-anchor="start" x="733.7258" y="-15.4" font-family="sans-serif" font-size="14.00" fill="#000000"> &#160;Exports</text>
<g id="clust1" class="cluster">
<title>cluster_AppModule</title>
<polygon fill="none" stroke="#000000" stroke-dasharray="1,5" points="8,-70 8,-268 1096,-268 1096,-70 8,-70"/>
</g>
<g id="clust2" class="cluster">
<title>cluster_AppModule_declarations</title>
<polygon fill="none" stroke="#000000" points="710,-78 710,-130 1088,-130 1088,-78 710,-78"/>
</g>
<g id="clust6" class="cluster">
<title>cluster_AppModule_imports</title>
<polygon fill="none" stroke="#000000" points="441,-78 441,-130 702,-130 702,-78 441,-78"/>
</g>
<g id="clust8" class="cluster">
<title>cluster_AppModule_bootstrap</title>
<polygon fill="none" stroke="#000000" points="502,-208 502,-260 626,-260 626,-208 502,-208"/>
</g>
<g id="clust9" class="cluster">
<title>cluster_AppModule_providers</title>
<polygon fill="none" stroke="#000000" points="16,-78 16,-130 433,-130 433,-78 16,-78"/>
</g>
<!-- AppComponent -->
<g id="node1" class="node">
<title>AppComponent</title>
<polygon fill="#ffffb3" stroke="#000000" points="1079.9399,-122 974.0601,-122 974.0601,-86 1079.9399,-86 1079.9399,-122"/>
<text text-anchor="middle" x="1027" y="-99.8" font-family="Times,serif" font-size="14.00" fill="#000000">AppComponent</text>
</g>
<!-- AppModule -->
<g id="node4" class="node">
<title>AppModule</title>
<polygon fill="#8dd3c7" stroke="#000000" points="605.6571,-187 602.6571,-191 581.6571,-191 578.6571,-187 522.3429,-187 522.3429,-151 605.6571,-151 605.6571,-187"/>
<text text-anchor="middle" x="564" y="-164.8" font-family="Times,serif" font-size="14.00" fill="#000000">AppModule</text>
</g>
<!-- AppComponent&#45;&gt;AppModule -->
<g id="edge1" class="edge">
<title>AppComponent&#45;&gt;AppModule</title>
<path fill="none" stroke="#000000" d="M1027,-122.2921C1027,-144.2057 1027,-178 1027,-178 1027,-178 615.9048,-178 615.9048,-178"/>
<polygon fill="#000000" stroke="#000000" points="615.9048,-174.5001 605.9048,-178 615.9047,-181.5001 615.9048,-174.5001"/>
</g>
<!-- CityComponent -->
<g id="node2" class="node">
<title>CityComponent</title>
<polygon fill="#ffffb3" stroke="#000000" points="956.9512,-122 851.0488,-122 851.0488,-86 956.9512,-86 956.9512,-122"/>
<text text-anchor="middle" x="904" y="-99.8" font-family="Times,serif" font-size="14.00" fill="#000000">CityComponent</text>
</g>
<!-- CityComponent&#45;&gt;AppModule -->
<g id="edge2" class="edge">
<title>CityComponent&#45;&gt;AppModule</title>
<path fill="none" stroke="#000000" d="M904,-122.1061C904,-141.3391 904,-169 904,-169 904,-169 615.6907,-169 615.6907,-169"/>
<polygon fill="#000000" stroke="#000000" points="615.6907,-165.5001 605.6907,-169 615.6906,-172.5001 615.6907,-165.5001"/>
</g>
<!-- HomeComponent -->
<g id="node3" class="node">
<title>HomeComponent</title>
<polygon fill="#ffffb3" stroke="#000000" points="833.5451,-122 718.4549,-122 718.4549,-86 833.5451,-86 833.5451,-122"/>
<text text-anchor="middle" x="776" y="-99.8" font-family="Times,serif" font-size="14.00" fill="#000000">HomeComponent</text>
</g>
<!-- HomeComponent&#45;&gt;AppModule -->
<g id="edge3" class="edge">
<title>HomeComponent&#45;&gt;AppModule</title>
<path fill="none" stroke="#000000" d="M776,-122.027C776,-138.3976 776,-160 776,-160 776,-160 615.8844,-160 615.8844,-160"/>
<polygon fill="#000000" stroke="#000000" points="615.8844,-156.5001 605.8844,-160 615.8843,-163.5001 615.8844,-156.5001"/>
</g>
<!-- AppComponent  -->
<g id="node7" class="node">
<title>AppComponent </title>
<polygon fill="#80b1d3" stroke="#000000" points="618.439,-252 509.561,-252 509.561,-216 618.439,-216 618.439,-252"/>
<text text-anchor="middle" x="564" y="-229.8" font-family="Times,serif" font-size="14.00" fill="#000000">AppComponent </text>
</g>
<!-- AppModule&#45;&gt;AppComponent  -->
<g id="edge6" class="edge">
<title>AppModule&#45;&gt;AppComponent </title>
<path fill="none" stroke="#000000" stroke-dasharray="1,5" d="M564,-187.1061C564,-187.1061 564,-205.991 564,-205.991"/>
<polygon fill="#000000" stroke="#000000" points="560.5001,-205.9909 564,-215.991 567.5001,-205.991 560.5001,-205.9909"/>
</g>
<!-- AppRoutingModule -->
<g id="node5" class="node">
<title>AppRoutingModule</title>
<polygon fill="#8dd3c7" stroke="#000000" points="694.2744,-122 691.2744,-126 670.2744,-126 667.2744,-122 565.7256,-122 565.7256,-86 694.2744,-86 694.2744,-122"/>
<text text-anchor="middle" x="630" y="-99.8" font-family="Times,serif" font-size="14.00" fill="#000000">AppRoutingModule</text>
</g>
<!-- AppRoutingModule&#45;&gt;AppModule -->
<g id="edge4" class="edge">
<title>AppRoutingModule&#45;&gt;AppModule</title>
<path fill="none" stroke="#000000" d="M585.7206,-122.1061C585.7206,-122.1061 585.7206,-140.991 585.7206,-140.991"/>
<polygon fill="#000000" stroke="#000000" points="582.2206,-140.9909 585.7206,-150.991 589.2206,-140.991 582.2206,-140.9909"/>
</g>
<!-- SharedModule -->
<g id="node6" class="node">
<title>SharedModule</title>
<polygon fill="#8dd3c7" stroke="#000000" points="547.4231,-122 544.4231,-126 523.4231,-126 520.4231,-122 448.5769,-122 448.5769,-86 547.4231,-86 547.4231,-122"/>
<text text-anchor="middle" x="498" y="-99.8" font-family="Times,serif" font-size="14.00" fill="#000000">SharedModule</text>
</g>
<!-- SharedModule&#45;&gt;AppModule -->
<g id="edge5" class="edge">
<title>SharedModule&#45;&gt;AppModule</title>
<path fill="none" stroke="#000000" d="M534.6915,-122.1061C534.6915,-122.1061 534.6915,-140.991 534.6915,-140.991"/>
<polygon fill="#000000" stroke="#000000" points="531.1915,-140.9909 534.6915,-150.991 538.1915,-140.991 531.1915,-140.9909"/>
</g>
<!-- AppService -->
<g id="node8" class="node">
<title>AppService</title>
<ellipse fill="#fdb462" stroke="#000000" cx="368" cy="-104" rx="56.7406" ry="18"/>
<text text-anchor="middle" x="368" y="-99.8" font-family="Times,serif" font-size="14.00" fill="#000000">AppService</text>
</g>
<!-- AppService&#45;&gt;AppModule -->
<g id="edge7" class="edge">
<title>AppService&#45;&gt;AppModule</title>
<path fill="none" stroke="#000000" d="M368,-122.027C368,-138.3976 368,-160 368,-160 368,-160 511.9531,-160 511.9531,-160"/>
<polygon fill="#000000" stroke="#000000" points="511.9531,-163.5001 521.9531,-160 511.953,-156.5001 511.9531,-163.5001"/>
</g>
<!-- CityService -->
<g id="node9" class="node">
<title>CityService</title>
<ellipse fill="#fdb462" stroke="#000000" cx="237" cy="-104" rx="56.7561" ry="18"/>
<text text-anchor="middle" x="237" y="-99.8" font-family="Times,serif" font-size="14.00" fill="#000000">CityService</text>
</g>
<!-- CityService&#45;&gt;AppModule -->
<g id="edge8" class="edge">
<title>CityService&#45;&gt;AppModule</title>
<path fill="none" stroke="#000000" d="M237,-122.1061C237,-141.3391 237,-169 237,-169 237,-169 512.2531,-169 512.2531,-169"/>
<polygon fill="#000000" stroke="#000000" points="512.2531,-172.5001 522.2531,-169 512.253,-165.5001 512.2531,-172.5001"/>
</g>
<!-- StorageService -->
<g id="node10" class="node">
<title>StorageService</title>
<ellipse fill="#fdb462" stroke="#000000" cx="93" cy="-104" rx="69.4781" ry="18"/>
<text text-anchor="middle" x="93" y="-99.8" font-family="Times,serif" font-size="14.00" fill="#000000">StorageService</text>
</g>
<!-- StorageService&#45;&gt;AppModule -->
<g id="edge9" class="edge">
<title>StorageService&#45;&gt;AppModule</title>
<path fill="none" stroke="#000000" d="M93,-122.2921C93,-144.2057 93,-178 93,-178 93,-178 512.2019,-178 512.2019,-178"/>
<polygon fill="#000000" stroke="#000000" points="512.2019,-181.5001 522.2019,-178 512.2019,-174.5001 512.2019,-181.5001"/>
</g>
</g>
</svg>
